<svg xmlns="http://www.w3.org/2000/svg" width="900" height="560" viewBox="0 0 900 560">
<rect width="100%" height="100%" fill="white"/>
<style>text{font-family:Arial,sans-serif;fill:#222}.box{fill:#f5f8fb;stroke:#2369a1;stroke-width:2}.arrow{stroke:#555;stroke-width:2;fill:none}</style>
<defs><marker id="a" markerWidth="8" markerHeight="8" refX="7" refY="3" orient="auto"><path d="M0,0 L0,6 L8,3 z" fill="#555"/></marker></defs>
<rect class="box" x="250" y="25" width="400" height="70" rx="8"/>
<text x="450.0" y="54" text-anchor="middle" font-size="18">NHANES 1999–2016 source cycles</text>
<text x="450.0" y="79" text-anchor="middle" font-size="17">n=92,062</text>
<rect class="box" x="250" y="145" width="400" height="70" rx="8"/>
<text x="450.0" y="174" text-anchor="middle" font-size="18">Mortality eligible</text>
<text x="450.0" y="199" text-anchor="middle" font-size="17">n=53,255</text>
<rect class="box" x="250" y="265" width="400" height="70" rx="8"/>
<text x="450.0" y="294" text-anchor="middle" font-size="18">Biomarker-complete analytic cohort</text>
<text x="450.0" y="319" text-anchor="middle" font-size="17">n=19,829</text>
<rect class="box" x="45" y="445" width="360" height="70" rx="8"/>
<text x="225.0" y="474" text-anchor="middle" font-size="18">Development (1999–2010)</text>
<text x="225.0" y="499" text-anchor="middle" font-size="17">n=13,090</text>
<rect class="box" x="495" y="445" width="360" height="70" rx="8"/>
<text x="675.0" y="474" text-anchor="middle" font-size="18">Temporal validation (2011–2016)</text>
<text x="675.0" y="499" text-anchor="middle" font-size="17">n=6,739</text>
<line class="arrow" x1="450" y1="95" x2="450" y2="140" marker-end="url(#a)"/>
<line class="arrow" x1="450" y1="215" x2="450" y2="260" marker-end="url(#a)"/>
<path class="arrow" d="M450 335 L450 385 L225 385 L225 440" marker-end="url(#a)"/>
<path class="arrow" d="M450 335 L450 385 L675 385 L675 440" marker-end="url(#a)"/>
</svg>